<?xml version="1.0" encoding="utf-8"?>
<!-- Generator: Adobe Illustrator 23.1.0, SVG Export Plug-In . SVG Version: 6.00 Build 0)  -->
<svg version="1.1" id="Capa_1" xmlns="http://www.w3.org/2000/svg" xmlns:xlink="http://www.w3.org/1999/xlink" x="0px" y="0px"
	 viewBox="0 0 477.9 477.9" style="enable-background:new 0 0 477.9 477.9;" xml:space="preserve">
<style type="text/css">
	.st0{fill:#FFFFFF;}
</style>
<g>
	<path class="st0" d="M461.3,191.6h-41.7c-8.8,0-15.9,7.1-15.9,15.9s7.1,15.9,15.9,15.9h41.7c8.8,0,15.9-7.1,15.9-15.9
		S470.1,191.6,461.3,191.6z"/>
	<path class="st0" d="M416.9,251.8c-6.2-6.2-16.3-6.2-22.5,0c-3,3-4.7,7-4.7,11.2s1.7,8.2,4.7,11.2l27.8,27.8c3,3,7,4.7,11.2,4.7
		c4.2,0,8.2-1.7,11.2-4.7c6.2-6.2,6.2-16.3,0-22.5L416.9,251.8z"/>
	<path class="st0" d="M405.7,167.8c4.2,0,8.2-1.7,11.2-4.7l27.8-27.8c6.2-6.2,6.2-16.3,0-22.5c-3-3-7-4.7-11.2-4.7
		c-4.2,0-8.2,1.7-11.2,4.7l-27.8,27.8c-6.2,6.2-6.2,16.3,0,22.5C397.5,166.1,401.5,167.8,405.7,167.8z"/>
</g>
<path class="st0" d="M330.3,28.7c-23.2,0-45.4,16.9-49,37l-12,12c-21.5,21.5-53.2,34.4-84.8,34.4H101c-18.2,0-34.5,11.1-41.4,27.8
	h-0.3C27,140,0.7,166.2,0.7,198.6c0,32.3,26.3,58.6,58.6,58.6h0.3c4.5,11,13.5,19.9,24.5,24.5v122.8c0,24.7,20.1,44.7,44.7,44.7
	c24.6,0,44.7-20.1,44.7-44.7V285h10.9c31.6,0,63.3,12.8,84.8,34.4l12,12c3.7,20.2,25.8,37,49,37c23.5,0,49.7-19.1,49.7-44.7V73.4
	C380,47.9,353.8,28.7,330.3,28.7z M346.2,323.7c0,5.4-9.3,10.9-15.9,10.9s-15.9-5.5-15.9-10.9V73.4c0-5.4,9.3-10.9,15.9-10.9
	c6.6,0,15.9,5.5,15.9,10.9V323.7z M280.6,112.9v171.4c-22.4-17.7-50.2-29-79.4-32.2l0-107C230.3,141.9,258.2,130.6,280.6,112.9z
	 M139.7,285v119.5c0,6-4.9,10.9-10.9,10.9s-10.9-4.9-10.9-10.9V285H139.7z M90.1,156.9c0-6,4.9-10.9,10.9-10.9h66.5v105.2H101
	c-6,0-10.9-4.9-10.9-10.9V156.9z M56.3,173.9v49.2c-12.3-1.5-21.8-12-21.8-24.6S44,175.4,56.3,173.9z"/>
</svg>
