<?xml version="1.0" encoding="utf-8"?>
<!-- Generator: Adobe Illustrator 23.1.0, SVG Export Plug-In . SVG Version: 6.00 Build 0)  -->
<svg version="1.1" id="Capa_1" xmlns="http://www.w3.org/2000/svg" xmlns:xlink="http://www.w3.org/1999/xlink" x="0px" y="0px"
	 viewBox="0 0 477.9 477.9" style="enable-background:new 0 0 477.9 477.9;" xml:space="preserve">
<style type="text/css">
	.st0{fill:#FFFFFF;}
</style>
<g>
	<path class="st0" d="M474.4,137.1l-40.3-68.2c-6.5-11-18.6-17.9-31.4-17.9h-32.3V17.5l0-0.2C370.1,8.1,362.8,1,353.7,1
		c0,0-0.1,0-0.1,0H124.3c0,0-0.1,0-0.1,0c-9.1,0-16.5,7.1-16.8,16.3l0,33.7H83c0,0,0,0,0,0c-11.9,0-23.1,5.8-29.9,15.6L5,135.6
		c-4.3,6.2-6.6,13.4-6.5,20.9v18.7c0.1,21.8,13.2,41.1,33,49.4v235.8c-0.1,4.3,1.5,8.4,4.5,11.5c3,3.1,7,4.9,11.3,5.1
		c0.1,0,0.3,0,0.4,0h382c0,0,0,0,0.1,0c9,0,16.5-7.3,16.7-16.3l0-235.8c19.9-8.3,33-27.7,33-49.6v-19.5
		C479.4,149.1,477.7,142.7,474.4,137.1z M272.4,316v128h-67V316H272.4z M140.4,123V34h197v89H140.4z M305.4,299.4
		c-0.3-9.2-7.7-16.4-16.9-16.4h-99.9c-9,0.1-16.3,7.5-16.2,16.6V444h-108V227.5c6.6-1.5,12.8-4.3,18.3-8.1
		c7.9,12.5,19.7,21.9,33.9,26.9c16.7,5.9,34.8,5,50.8-2.7c8.1-3.9,15.3-9.4,21.2-16.1c9.6,10.9,22.4,18.4,36.9,21.3
		c17.4,3.5,35.2,0,50-9.9c5-3.4,9.5-7.3,13.5-11.9c21.6,24.8,58.8,30.5,87.1,12c7.8-5.1,14.4-11.8,19.4-19.5
		c5.4,3.7,11.5,6.4,17.9,7.9V444h-108V299.5L305.4,299.4z M425.7,195.9c-9.6,0-18-6.7-20.1-16l-0.6-6.4c-0.9-9-9.1-15.7-18.1-14.7
		c-8.4,0.9-14.7,7.9-14.8,16.4c0,3.1,0.3,6.2,0.8,9.3c-0.5,18.1-15.3,32.6-33.5,32.6c-0.1,0-0.2,0-0.3,0
		c-18.3-0.2-33.2-15.2-33.1-33.6c0-9.1-7.4-16.5-16.5-16.5h-0.8c-9.1,0-16.5,7.4-16.5,16.5c0.1,18.5-14.8,33.6-33.3,33.6
		c-18.5,0.1-33.6-14.8-33.6-33.3v-0.4c0-9.1-7.4-16.5-16.5-16.5s-16.5,7.4-16.5,16.5c0,8.9-3.5,17.3-9.9,23.7
		c-6.3,6.3-14.7,9.8-23.6,9.8c0,0,0,0-0.1,0c-18.2,0-33.1-14.8-33.4-32.9l0.1-2.2c0.3-2.2,0.4-4.4,0.4-6.6c0-9.1-7.4-16.5-16.5-16.5
		c0,0,0,0,0,0c-8.7,0-15.9,6.8-16.5,15.4l-0.3,4.3c-0.8,5.4-3.7,10.1-8.1,13.4c-4.4,3.3-9.9,4.7-15.3,3.9
		c-10.1-1.5-17.7-10.3-17.7-20.5v-18.7c0-0.7,0.2-1.4,0.6-2l48.2-69c0.6-0.9,1.7-1.5,2.8-1.5c0,0,0,0,0,0h24.4v55.5l0,0.2
		c0.3,9.2,7.7,16.3,16.8,16.3c0,0,0.1,0,0.1,0h229.2c0,0,0.1,0,0.1,0c9.2,0,16.5-7.2,16.8-16.3l0-55.7h32.3c1.2,0,2.4,0.7,3,1.7
		l40.2,68.2c0.3,0.5,0.5,1.1,0.5,1.8v19.5C446.4,186.6,437.2,195.9,425.7,195.9C425.8,195.9,425.7,195.9,425.7,195.9z"/>
	<path class="st0" d="M148.9,300.8h-63c-5.8,0-10.5,4.7-10.5,10.5v59c0,5.8,4.7,10.5,10.5,10.5h63c5.8,0,10.5-4.7,10.5-10.5v-59
		C159.4,305.5,154.7,300.8,148.9,300.8z M138.4,321.8v38h-42v-38H138.4z"/>
	<path class="st0" d="M328.2,380.8h63c5.8,0,10.5-4.7,10.5-10.5v-59c0-5.8-4.7-10.5-10.5-10.5h-63c-5.8,0-10.5,4.7-10.5,10.5v59
		C317.7,376.1,322.4,380.8,328.2,380.8z M338.7,359.8v-38h42v38H338.7z"/>
</g>
</svg>
