<?xml version="1.0" encoding="utf-8"?>
<!-- Generator: Adobe Illustrator 23.1.0, SVG Export Plug-In . SVG Version: 6.00 Build 0)  -->
<svg version="1.1" id="Capa_1" xmlns="http://www.w3.org/2000/svg" xmlns:xlink="http://www.w3.org/1999/xlink" x="0px" y="0px"
	 viewBox="0 0 477.9 477.9" style="enable-background:new 0 0 477.9 477.9;" xml:space="preserve">
<style type="text/css">
	.st0{fill:#FFFFFF;}
</style>
<path class="st0" d="M410.2,19.4H67.7c-37.5,0-67.9,30.2-67.9,67.3v207.6c0,36,28.8,65.5,64.7,67.2v97l140.6-96.9h205.1
	c37.5,0,67.9-30.2,67.9-67.3V86.7C478.1,49.6,447.6,19.4,410.2,19.4z M98.2,394.7v-66.5H67.7c-18.9,0-34.3-15.2-34.3-34V86.7
	c0-18.7,15.4-34,34.3-34h342.5c18.9,0,34.3,15.2,34.3,34v207.6c0,18.7-15.4,34-34.3,34H194.6L98.2,394.7z"/>
<path class="st0" d="M133.5,112h211v32.4h-211V112z"/>
<path class="st0" d="M133.5,172.1h211v32.4h-211V172.1z"/>
<path class="st0" d="M133.5,236.3h211v32.4h-211V236.3z"/>
</svg>
