<?xml version="1.0" encoding="utf-8"?>
<!-- Generator: Adobe Illustrator 23.1.0, SVG Export Plug-In . SVG Version: 6.00 Build 0)  -->
<svg version="1.1" id="Capa_1" xmlns="http://www.w3.org/2000/svg" xmlns:xlink="http://www.w3.org/1999/xlink" x="0px" y="0px"
	 viewBox="0 0 477.9 477.9" style="enable-background:new 0 0 477.9 477.9;" xml:space="preserve">
<style type="text/css">
	.st0{fill:#FFFFFF;}
</style>
<g>
	<path class="st0" d="M89.1,357.9c-5.4,0-10.8,1-15.9,2.8C47.4,325.6,33.3,282.6,33.3,239c0-113.4,92.3-205.7,205.7-205.7
		c13.8,0,27.6,1.4,41,4.1c4.3,0.9,8.7,0,12.4-2.4c3.7-2.4,6.2-6.2,7.1-10.5c1.8-8.9-4-17.7-12.9-19.5c-15.5-3.1-31.5-4.7-47.5-4.7
		c-63.8,0-123.7,24.8-168.8,69.9C25.1,115.2,0.2,175.2,0.2,239c0,51.8,17.1,102.7,48.2,143.9c-3.2,6.3-4.8,13.3-4.8,20.4
		c0,12.1,4.7,23.5,13.3,32.1c8.6,8.6,20,13.3,32.1,13.3c12.1,0,23.5-4.7,32.1-13.3c8.6-8.6,13.3-20,13.3-32.1
		c0-12.1-4.7-23.5-13.3-32.1C112.6,362.6,101.2,357.9,89.1,357.9z M101.4,403.3c0,3.3-1.3,6.4-3.6,8.7l0,0c-2.3,2.3-5.4,3.6-8.7,3.6
		c-3.3,0-6.4-1.3-8.7-3.6c-2.3-2.3-3.6-5.4-3.6-8.7c0-3.3,1.3-6.4,3.6-8.8c2.3-2.3,5.4-3.6,8.7-3.6c3.3,0,6.4,1.3,8.7,3.6
		C100.1,396.9,101.4,400,101.4,403.3z"/>
	<path class="st0" d="M429.4,95c8.7-17.3,5.5-38.6-8.5-52.6c-8.6-8.6-20-13.3-32.1-13.3s-23.5,4.7-32.1,13.3
		c-8.6,8.6-13.3,20-13.3,32.1s4.7,23.5,13.3,32.1c8.6,8.6,20,13.3,32.1,13.3c5.4,0,10.8-1,15.9-2.8c25.8,35.1,39.9,78.1,39.9,121.8
		c0,113.4-92.3,205.7-205.7,205.7c-13.7,0-27.3-1.3-40.6-4c-8.9-1.8-17.7,4-19.5,13c-1.8,8.9,4,17.7,13,19.5
		c15.4,3.1,31.2,4.6,47.1,4.6c63.8,0,123.7-24.8,168.8-69.9s69.9-105,69.9-168.8C477.7,187.2,460.6,136.3,429.4,95z M397.6,83.4
		c-2.3,2.3-5.4,3.6-8.8,3.6c-3.3,0-6.4-1.3-8.7-3.6l0,0c-2.3-2.3-3.6-5.4-3.6-8.7c0-3.3,1.3-6.4,3.6-8.8c2.3-2.3,5.4-3.6,8.7-3.6
		s6.4,1.3,8.7,3.6C402.4,70.7,402.4,78.5,397.6,83.4z"/>
	<path class="st0" d="M160.7,380.4l8.4-8.4c8,4.2,16.4,7.7,25.1,10.4v11.9c0,9.1,7.4,16.5,16.5,16.5h56.5c9.1,0,16.5-7.4,16.5-16.5
		v-11.9c8.7-2.7,17-6.2,25.1-10.4l8.4,8.4c3.1,3.1,7.3,4.8,11.7,4.8c4.4,0,8.6-1.8,11.7-4.8l39.9-39.9c6.4-6.4,6.4-16.9,0-23.4
		l-8.4-8.4c4.2-8,7.7-16.4,10.4-25.1h11.8c9.1,0,16.5-7.4,16.5-16.5v-56.5c0-9.1-7.4-16.5-16.5-16.5h-11.8
		c-2.7-8.7-6.2-17.1-10.4-25.1l8.3-8.3c3.1-3.1,4.8-7.3,4.8-11.7c0-4.4-1.7-8.6-4.8-11.7l-39.9-39.9c-6.4-6.4-16.9-6.4-23.4,0
		l-8.3,8.3c-8-4.2-16.4-7.7-25.1-10.4V83.6c0-9.1-7.4-16.5-16.5-16.5h-56.5c-9.1,0-16.5,7.4-16.5,16.5v11.7
		c-8.6,2.7-17,6.2-25.1,10.4l-8.3-8.3c-6.4-6.4-16.9-6.4-23.4,0l-39.9,39.9c-3.1,3.1-4.9,7.3-4.9,11.7c0,4.4,1.8,8.6,4.8,11.7
		l8.3,8.3c-4.2,8-7.7,16.4-10.4,25.1H83.6c-9.1,0-16.5,7.4-16.5,16.5l0,56.5c0,4.4,1.8,8.6,4.8,11.7c3.1,3.1,7.3,4.8,11.7,4.8h11.8
		c2.7,8.7,6.2,17,10.4,25.1l-8.4,8.4c-6.4,6.4-6.4,16.9,0,23.4l39.9,39.9c3.1,3.1,7.3,4.8,11.7,4.8
		C153.5,385.3,157.6,383.6,160.7,380.4z M138.2,323.1c5.5-5.5,6.4-14.2,2.2-20.7c-7.7-11.9-13.1-25-16.1-38.8
		c-1.6-7.6-8.4-13.1-16.2-13.1h-8l0-23.4h8c7.7,0,14.5-5.5,16.2-13.1c3-13.8,8.4-26.9,16.1-38.8c4.2-6.5,3.3-15.2-2.2-20.7l-5.6-5.6
		l16.6-16.5l5.6,5.6c5.5,5.5,14.2,6.4,20.7,2.2c11.9-7.7,25-13.1,38.8-16.1c7.6-1.6,13.1-8.4,13.1-16.2v-7.9h23.4v7.9
		c0,7.7,5.5,14.5,13.1,16.2c13.8,3,26.9,8.4,38.8,16.1c6.5,4.2,15.2,3.3,20.7-2.2l5.6-5.6l16.6,16.5l-5.6,5.6
		c-5.5,5.5-6.4,14.2-2.2,20.7c7.7,11.9,13.1,25,16.1,38.8c1.6,7.6,8.4,13.1,16.2,13.1h8v23.4h-8c-7.7,0-14.5,5.5-16.2,13.1
		c-3,13.8-8.4,26.9-16.1,38.8c-4.2,6.5-3.3,15.2,2.2,20.7l5.7,5.7l-16.5,16.6l-5.7-5.7c-5.5-5.5-14.2-6.4-20.7-2.2
		c-11.9,7.7-25,13.1-38.8,16.1c-7.6,1.6-13.1,8.4-13.1,16.2v8.1h-23.4v-8.1c0-7.7-5.5-14.5-13.1-16.2c-13.8-3-26.9-8.4-38.8-16.1
		c-6.5-4.2-15.2-3.3-20.7,2.2l-5.7,5.7l-16.5-16.6L138.2,323.1z"/>
	<path class="st0" d="M239,321.1c45.3,0,82.1-36.8,82.1-82.1c0-45.3-36.8-82.1-82.1-82.1c-45.3,0-82.1,36.8-82.1,82.1
		C156.8,284.3,193.7,321.1,239,321.1z M189.9,239c0-27.1,22-49.1,49.1-49.1s49.1,22,49.1,49.1C288,266,266,288,239,288
		S189.9,266,189.9,239z"/>
	<path class="st0" d="M322.1,49.4c4.4,0,8.6-1.8,11.7-4.9c3.1-3.1,4.8-7.3,4.8-11.7c0-4.3-1.8-8.6-4.8-11.7
		c-3.1-3.1-7.3-4.8-11.7-4.8c-4.3,0-8.6,1.8-11.7,4.9c-3.1,3.1-4.8,7.3-4.8,11.7c0,4.3,1.8,8.6,4.8,11.7
		C313.5,47.6,317.8,49.4,322.1,49.4z"/>
	<path class="st0" d="M156.2,428.7c-4.4,0-8.6,1.8-11.7,4.8c-3.1,3.1-4.8,7.3-4.8,11.7s1.8,8.6,4.8,11.7c3.1,3.1,7.3,4.8,11.7,4.8
		s8.6-1.8,11.7-4.8c3.1-3.1,4.8-7.3,4.8-11.7s-1.8-8.6-4.8-11.7C164.8,430.5,160.5,428.7,156.2,428.7z"/>
</g>
</svg>
