<svg version="1.1" viewBox="0.000000 0.000000 511.999000 511.999000" xmlns="http://www.w3.org/2000/svg" xmlns:xlink="http://www.w3.org/1999/xlink" id="Capa_1" overflow="hidden"><g><g><path d=" M 508.744995 246.041000 C 504.170990 239.783997 395.187988 92.834999 255.996994 92.834999 C 116.806000 92.834999 7.818000 239.783997 3.249000 246.035004 C -1.083000 251.970993 -1.083000 260.022003 3.249000 265.958008 C 7.818000 272.214996 116.806000 419.164001 255.996994 419.164001 C 395.187988 419.164001 504.170990 272.213989 508.744995 265.963013 C 513.083008 260.028015 513.083008 251.970993 508.744995 246.041000 Z M 255.996994 385.406006 C 153.468002 385.406006 64.667000 287.872986 38.380001 255.988007 C 64.633003 224.074997 153.248001 126.593002 255.996994 126.593002 C 358.520996 126.593002 447.316010 224.108994 473.614014 256.010986 C 447.360992 287.923004 358.746002 385.406006 255.996994 385.406006 Z" stroke="none" stroke-width="1.000000" stroke-dasharray="" stroke-dashoffset="1.000000" fill="#231659" fill-opacity="1.000000"/></g></g><g><g><path d=" M 255.996994 154.725006 C 200.154999 154.725006 154.722000 200.158005 154.722000 256.000000 C 154.722000 311.842010 200.154999 357.274994 255.996994 357.274994 C 311.838989 357.274994 357.272003 311.842010 357.272003 256.000000 C 357.272003 200.158005 311.838989 154.725006 255.996994 154.725006 Z M 255.996994 323.515991 C 218.766998 323.515991 188.481003 293.229004 188.481003 256.000000 C 188.481003 218.770996 218.768005 188.483994 255.996994 188.483994 C 293.226013 188.483994 323.513000 218.770996 323.513000 256.000000 C 323.513000 293.229004 293.226990 323.515991 255.996994 323.515991 Z" stroke="none" stroke-width="1.000000" stroke-dasharray="" stroke-dashoffset="1.000000" fill="#231659" fill-opacity="1.000000"/></g></g><g></g><g></g><g></g><g></g><g></g><g></g><g></g><g></g><g></g><g></g><g></g><g></g><g></g><g></g><g></g></svg>