<svg version="1.1" viewBox="0.000000 0.000000 513.280000 513.280000" xmlns="http://www.w3.org/2000/svg" xmlns:xlink="http://www.w3.org/1999/xlink" id="Capa_1" overflow="hidden"><style>
.MsftOfcThm_Background1_Fill {
 fill:#FFFFFF; 
}
</style>
<g><g><path d=" M 495.040009 404.480011 L 410.559998 320.000000 C 425.920013 289.279999 436.160004 253.440002 436.160004 217.600006 C 436.160004 97.279999 338.880005 0.000000 218.559998 0.000000 C 98.239998 0.000000 0.960000 97.279999 0.960000 217.600006 C 0.960000 337.920013 98.239998 435.200012 218.559998 435.200012 C 254.399994 435.200012 290.239990 424.959991 320.959991 409.600006 L 405.440002 494.079987 C 431.040009 519.679993 469.440002 519.679993 495.040009 494.079987 C 518.080017 468.480011 518.080017 430.079987 495.040009 404.480011 Z M 218.559998 384.000000 C 126.400002 384.000000 52.160000 309.760010 52.160000 217.600006 C 52.160000 125.440002 126.400002 51.200001 218.559998 51.200001 C 310.720001 51.200001 384.959991 125.440002 384.959991 217.600006 C 384.959991 309.760010 310.720001 384.000000 218.559998 384.000000 Z" stroke="none" stroke-width="1.000000" stroke-dasharray="" stroke-dashoffset="1.000000" fill="#FFFFFF" fill-opacity="1.000000"/></g></g><g></g><g></g><g></g><g></g><g></g><g></g><g></g><g></g><g></g><g></g><g></g><g></g><g></g><g></g><g></g></svg>