<svg version="1.1" width="657.333333" height="657.333333" viewBox="-15.000000 -35.000000 493.335220 493.000000" xmlns="http://www.w3.org/2000/svg" xmlns:xlink="http://www.w3.org/1999/xlink" overflow="hidden"><style>
.MsftOfcThm_Background1_Fill {
 fill:#FFFFFF; 
}
</style>
<path d=" M 412.902344 -1.105469 L 245.285156 -1.105469 C 217.734375 -1.105469 195.210938 21.718750 195.210938 49.265625 L 195.210938 93.781250 C 195.210938 100.679688 200.804688 106.269531 207.703125 106.269531 C 214.601562 106.269531 220.191406 100.679688 220.191406 93.781250 L 220.191406 49.265625 C 220.226562 35.375000 231.394531 24.074219 245.285156 23.875000 L 412.902344 23.875000 C 426.679688 23.875000 437.519531 35.492188 437.519531 49.265625 L 437.519531 372.246094 C 437.683594 385.937500 426.718750 397.167969 413.027344 397.328125 L 245.289062 397.328125 C 231.453125 397.277344 220.250000 386.078125 220.191406 372.246094 L 220.191406 328.660156 C 220.191406 321.757812 214.601562 316.167969 207.703125 316.167969 C 200.804688 316.167969 195.210938 321.757812 195.210938 328.660156 L 195.210938 372.246094 C 195.285156 399.871094 217.660156 422.242188 245.285156 422.308594 L 412.902344 422.308594 C 440.398438 422.207031 462.609375 399.824219 462.500000 372.324219 L 462.500000 49.265625 C 462.500000 21.718750 440.453125 -1.105469 412.902344 -1.105469 Z" stroke="none" stroke-width="1.000000" stroke-dasharray="" stroke-dashoffset="1.000000" fill="#FFFFFF" fill-opacity="1.000000"/><path d=" M 42.871094 223.718750 L 338.472656 223.718750 C 345.371094 223.718750 350.964844 218.125000 350.964844 211.226562 C 350.964844 204.332031 345.371094 198.738281 338.472656 198.738281 L 40.097656 198.738281 L 104.179688 124.664062 C 108.699219 119.410156 108.136719 111.496094 102.933594 106.929688 C 97.742188 102.390625 89.855469 102.917969 85.320312 108.105469 L 85.320312 108.113281 L 4.546875 201.148438 C 1.570312 203.597656 -0.105469 207.285156 0.003906 211.132812 C 0.121094 214.988281 2.011719 218.574219 5.132812 220.839844 L 85.914062 301.621094 C 90.792969 306.500000 98.703125 306.500000 103.574219 301.621094 C 108.390625 296.894531 108.464844 289.167969 103.742188 284.351562 C 103.687500 284.300781 103.632812 284.246094 103.574219 284.191406 Z" stroke="none" stroke-width="1.000000" stroke-dasharray="" stroke-dashoffset="1.000000" fill="#FFFFFF" fill-opacity="1.000000"/></svg>