<?xml version="1.0" encoding="utf-8"?>
<!-- Generator: Adobe Illustrator 23.1.0, SVG Export Plug-In . SVG Version: 6.00 Build 0)  -->
<svg version="1.1" id="Layer_1" xmlns="http://www.w3.org/2000/svg" xmlns:xlink="http://www.w3.org/1999/xlink" x="0px" y="0px"
	 viewBox="0 0 477.9 477.9" style="enable-background:new 0 0 477.9 477.9;" xml:space="preserve">
<style type="text/css">
	.st0{fill:#FFFFFF;}
</style>
<path class="st0" d="M392.5,199.9l-72.6,72l-12.6,0.1c12.2-14.8,19.5-33.7,19.5-54.3c0-8.5-6.9-15.4-15.4-15.4h-10.7
	c12.3-23.5,0.8-52.7-24.5-61.4l-20.4-7c-5.2-1.8-8.7-6.7-8.7-12.2c0-17.3,27.8-17.3,27.8,0c0,8.5,6.9,15.4,15.4,15.4
	s15.4-6.9,15.4-15.4c0-19-12.2-35.2-29.3-41.2V67.4c0-8.5-6.9-15.4-15.4-15.4s-15.4,6.9-15.4,15.4v13.1c-39,13.7-38.8,69,0.1,82.4
	l20.4,7c5.2,1.8,8.7,6.7,8.7,12.2c0,7.1-5.8,12.9-12.9,12.9h-2c-7.1,0-12.9-5.8-12.9-12.9c0-8.5-6.9-15.4-15.4-15.4
	c-8.5,0-15.4,6.9-15.4,15.4c0,7.3,1.8,14.1,5,20.1h-37c-4.1,0-8,1.6-10.9,4.5l-12,12C108,139.4,165.2,31.9,261,31.9
	c66.1,0,120,53.8,120,120c0,8.5,6.9,15.4,15.4,15.4s15.4-6.9,15.4-15.4C411.7,68.8,344.1,1.2,261,1.2
	c-123.5,0-193.9,140.8-121.6,239.6l-44.6,44.6c-16.9-7.3-37.7-4.3-51.9,9.9l-28.2,28.2c-18.3,18.3-18.3,48.1,0,66.5l72.9,72.9
	c18.4,18.4,48.1,18.4,66.5,0l28.2-28.2c11.1-11.1,15.5-26.5,13.1-41h137c4.1,0,8-1.6,10.9-4.5L462.5,270c9.4-9.4,14.5-21.8,14.5-35
	C477,191,423.5,168.9,392.5,199.9z M160.6,413l-28.2,28.2c-6.4,6.4-16.7,6.4-23,0l-72.9-72.9c-6.4-6.4-6.4-16.7,0-23L64.7,317
	c7-7,17.3-5.4,21.5-1.2c0,0-4.2-4.6,74.5,74.1C166.9,396.3,166.9,406.6,160.6,413z M440.7,248.3L326,363H177l-58.2-58.2l71.8-71.8
	h103.2c-6.2,21.4-25.1,37.4-47.9,39.4l-31.3,0.2c-8.5,0.1-15.3,7-15.2,15.4s6.9,15.3,15.4,15.3c4.2,0,111.6-0.8,111.6-0.8
	c4,0,7.9-1.6,10.7-4.5l77.1-76.4c7.3-7.3,19.3-7.3,26.6,0C448.1,229,448.1,240.9,440.7,248.3z M91.2,351.7c6,6,6,15.7,0,21.7
	c-6,6-15.7,6-21.7,0l-2.1-2.1c-6-6-6-15.7,0-21.7c6-6,15.7-6,21.7,0L91.2,351.7z"/>
</svg>
