<?xml version="1.0" encoding="utf-8"?>
<!-- Generator: Adobe Illustrator 23.1.0, SVG Export Plug-In . SVG Version: 6.00 Build 0)  -->
<svg version="1.1" id="Capa_1" xmlns="http://www.w3.org/2000/svg" xmlns:xlink="http://www.w3.org/1999/xlink" x="0px" y="0px"
	 viewBox="0 0 477.9 477.9" style="enable-background:new 0 0 477.9 477.9;" xml:space="preserve">
<style type="text/css">
	.st0{fill:#FFFFFF;}
</style>
<g>
	<path class="st0" d="M274.8,367.9c5.7-7.6,8.8-16.8,8.8-26.6c0-24.6-20-44.6-44.6-44.6c-24.6,0-44.6,20-44.6,44.6
		c0,9.7,3.1,18.9,8.8,26.6c-16.4,8.5-27,25.6-27,44.4v30.9c0,18.6,15.1,33.7,33.7,33.7h58.2c18.6,0,33.7-15.1,33.7-33.7v-30.9
		C301.7,393.4,291.1,376.4,274.8,367.9z M239,320.4c11.5,0,20.9,9.4,20.9,20.9s-9.4,20.9-20.9,20.9s-20.9-9.4-20.9-20.9
		S227.4,320.4,239,320.4z M278.1,443.2c0,5.5-4.5,10-10,10h-58.2c-5.5,0-10-4.5-10-10v-30.9c0-14.5,11.8-26.4,26.4-26.4h25.5
		c14.5,0,26.4,11.8,26.4,26.4V443.2z"/>
	<path class="st0" d="M403.9,367.9c5.7-7.6,8.8-16.8,8.8-26.6c0-24.6-20-44.6-44.6-44.6s-44.6,20-44.6,44.6c0,9.7,3.1,18.9,8.8,26.6
		c-16.4,8.5-27,25.6-27,44.4v30.9c0,18.6,15.1,33.7,33.7,33.7h12.3c6.5,0,11.8-5.3,11.8-11.8c0-6.5-5.3-11.8-11.8-11.8H339
		c-5.5,0-10-4.5-10-10v-30.9c0-14.5,11.8-26.4,26.4-26.4h25.5c14.5,0,26.4,11.8,26.4,26.4v30.9c0,5.5-4.5,10-10,10h-8.7
		c-6.5,0-11.8,5.3-11.8,11.8c0,6.5,5.3,11.8,11.8,11.8h8.7c18.6,0,33.7-15.1,33.7-33.7v-30.9C430.9,393.4,420.3,376.4,403.9,367.9z
		 M368.1,362.2c-11.5,0-20.9-9.4-20.9-20.9s9.4-20.9,20.9-20.9s20.9,9.4,20.9,20.9S379.7,362.2,368.1,362.2z"/>
	<path class="st0" d="M145.6,367.9c5.7-7.6,8.8-16.8,8.8-26.6c0-24.6-20-44.6-44.6-44.6s-44.6,20-44.6,44.6c0,9.7,3.1,18.9,8.8,26.6
		c-16.4,8.5-27,25.6-27,44.4v30.9c0,18.6,15.1,33.7,33.7,33.7h58.2c18.6,0,33.7-15.1,33.7-33.7v-30.9
		C172.6,393.4,162,376.4,145.6,367.9z M109.8,320.4c11.5,0,20.9,9.4,20.9,20.9s-9.4,20.9-20.9,20.9s-20.9-9.4-20.9-20.9
		S98.3,320.4,109.8,320.4z M148.9,443.2c0,5.5-4.5,10-10,10H80.7c-5.5,0-10-4.5-10-10v-30.9c0-14.5,11.8-26.4,26.4-26.4h25.5
		c14.5,0,26.4,11.8,26.4,26.4V443.2z"/>
	<path class="st0" d="M109.8,294.2c6.5,0,11.8-5.3,11.8-11.8v-9.1h59c6.5,0,11.8-5.3,11.8-11.8s-5.3-11.8-11.8-11.8h-14.5v-7.9
		c0-11.6,9.4-21,21-21h26.4v5.1c0,11.7,9.5,21.3,21.3,21.3h8.4c11.7,0,21.3-9.5,21.3-21.3v-5.1h26.4c11.6,0,21,9.4,21,21v7.9H209.9
		c-6.5,0-11.8,5.3-11.8,11.8s5.3,11.8,11.8,11.8h17.3v9.1c0,6.5,5.3,11.8,11.8,11.8c6.5,0,11.8-5.3,11.8-11.8v-9.1h105.5v9.1
		c0,6.5,5.3,11.8,11.8,11.8c6.5,0,11.8-5.3,11.8-11.8v-21c0-6.5-5.3-11.8-11.8-11.8h-32.7v-7.9c0-24.6-20-44.6-44.6-44.6h-26.4v-4.4
		c19.7-7.3,35.2-22.9,42.6-42.5c0.1,0,0.2,0,0.2,0c16,0,27.2-18.5,27.2-35c0-10.4-4.5-19.3-12.3-24.4c1.7-8.5,2.8-20.1,0.4-32.6
		c-1.3-6.8-3.1-12.7-5.4-18c-1.3-2.9-3.6-5.1-6.5-6.3c-2.9-1.1-6.2-1.1-9,0.2c-2.9,1.3-5.1,3.6-6.3,6.5s-1.1,6.2,0.2,9
		c1.6,3.7,2.9,7.9,3.9,13c2.1,11.1,0.1,21.7-1.3,27.1c-1.5,1.1-2.9,2.5-4.1,4.1c-10.2-11.8-24.8-17.3-39.1-22.6
		c-12.9-4.9-25.1-9.4-32.5-18.3c-8.7-10.3-18.4-8.6-22.2-7.4c-12.6,4-20.5,20.6-21.4,31l-0.1,1.2c-0.2,1.8-0.3,3.6-0.5,5.3
		c-0.9-5.6-1.3-12.9,0.1-20.4c2.3-12.2,6.5-20.2,13.5-26c9.6-7.9,25.4-11.9,47-11.9c18.6,0,33,3,42.7,8.9c2.7,1.6,5.9,2.1,8.9,1.4
		c3.1-0.7,5.7-2.6,7.3-5.3c3.4-5.6,1.6-12.9-4-16.2c-13.6-8.3-31.6-12.3-55-12.3c-27.6,0-47.9,5.7-62,17.3
		C162,30.8,157.4,47,155.3,58.1c-2.4,12.5-1.3,24.1,0.4,32.6c-7.8,5.1-12.3,14-12.3,24.4c0,16.6,11.2,35,27.2,35c0.1,0,0.2,0,0.2,0
		c7.4,19.6,23,35.1,42.6,42.5v4.4h-26.4c-24.6,0-44.6,20-44.6,44.6v7.9h-32.7c-6.5,0-11.8,5.3-11.8,11.8v21
		C98,288.8,103.3,294.2,109.8,294.2z M311.9,124.6l0.8-10.2c0-0.1,0-0.1,0-0.2c0.4-3.9,1.9-8.1,3-9.3c3.4,1,6.8,4.3,6.2,10.9
		c-0.7,8.8-7.3,16.3-10.1,16.1c-0.3,0-0.6-0.1-0.9-0.2C311.4,129.3,311.7,127,311.9,124.6z M165.9,133.4c-2.8,0.2-9.4-7.2-10.1-16.1
		c-0.5-6.7,2.8-9.9,6.2-10.9c1.2,1.2,2.7,5.4,3,9.3c0,0.1,0,0.1,0,0.2l0.8,10.2c0.2,2.4,0.5,4.8,0.9,7.1
		C166.6,133.3,166.3,133.4,165.9,133.4z M244.9,230.1c0,0.7-0.1,1.1-0.9,1.6c-1,0.6-2.5,1-4.2,1c-3.3,0-6.2-1.5-6.2-2.6v-32.2
		c3.8,0.5,7.6,0.5,11.3,0V230.1z M189.8,125.2c2.6-1.3,4.7-3.2,6.2-5.8c2.8-4.6,4.1-12.7,6.3-39.7l0.1-1.2c0.2-2.8,2-6.4,3.5-8.6
		c11.3,12.3,26.2,18,40.7,23.4c16.5,6.2,29.4,11.1,34.2,23.9c1.3,3.6,3.9,6.4,7.2,8.1c-0.5,26.7-22.4,48.2-49.2,48.2
		C212.1,173.6,190.2,151.9,189.8,125.2z"/>
</g>
</svg>
