<?xml version="1.0" encoding="utf-8"?>
<!-- Generator: Adobe Illustrator 23.1.0, SVG Export Plug-In . SVG Version: 6.00 Build 0)  -->
<svg version="1.1" id="Capa_1" xmlns="http://www.w3.org/2000/svg" xmlns:xlink="http://www.w3.org/1999/xlink" x="0px" y="0px"
	 viewBox="0 0 477.9 477.9" style="enable-background:new 0 0 477.9 477.9;" xml:space="preserve">
<style type="text/css">
	.st0{fill:#FFFFFF;}
</style>
<g>
	<path class="st0" d="M236,233.3c32.1,0,59.9-11.5,82.6-34.2c22.7-22.7,34.2-50.5,34.2-82.6c0-32.1-11.5-59.9-34.2-82.6
		C295.9,11.1,268.1-0.4,236-0.4c-32.1,0-59.9,11.5-82.6,34.2c-22.7,22.7-34.2,50.5-34.2,82.6c0,32.1,11.5,59.9,34.2,82.6
		C176.1,221.8,203.9,233.3,236,233.3z M152.8,116.4c0-23.2,8-42.4,24.4-58.8v0c16.4-16.4,35.6-24.4,58.8-24.4
		c23.2,0,42.4,8,58.8,24.4c16.4,16.4,24.4,35.6,24.4,58.8c0,23.2-8,42.4-24.4,58.8c-16.4,16.4-35.6,24.4-58.8,24.4
		c-23.2,0-42.4-8-58.8-24.4C160.8,158.8,152.8,139.6,152.8,116.4z"/>
	<path class="st0" d="M438.2,365.9L438.2,365.9c-0.6-9.3-1.9-19.5-3.9-30.2c-1.9-10.8-4.4-21.1-7.4-30.4
		c-3.1-9.8-7.4-19.4-12.6-28.6c-5.5-9.6-11.9-18-19.2-25c-7.6-7.3-17-13.2-27.7-17.4c-10.7-4.2-22.6-6.4-35.2-6.4
		c-5.5,0-10.6,2.1-20.1,8.3c-5.6,3.6-12.1,7.8-19.3,12.4c-6,3.8-14.1,7.4-24.3,10.7c-9.8,3.2-19.8,4.8-29.6,4.8
		c-9.8,0-19.8-1.6-29.6-4.8c-10.1-3.3-18.3-6.9-24.2-10.7c-7.2-4.6-13.6-8.7-19.3-12.4c-9.6-6.2-14.6-8.3-20.1-8.3
		c-12.7,0-24.5,2.2-35.2,6.4c-10.8,4.3-20.1,10.1-27.7,17.4c-7.2,6.9-13.7,15.3-19.1,24.9c-5.2,9.2-9.5,18.8-12.6,28.6
		c-3,9.4-5.5,19.6-7.4,30.4c-1.9,10.7-3.2,20.9-3.9,30.2c-0.6,9.1-1,18.6-1,28.1c0,25.5,8.2,46.2,24.2,61.6
		c15.9,15.1,36.8,22.7,62.2,22.7h227.7c25.4,0,46.3-7.7,62.1-22.7c16.1-15.3,24.3-36,24.3-61.6C439.2,384.4,438.9,375,438.2,365.9z
		 M405.5,394c0,16.2-4.5,28.3-13.8,37.1c-9.5,9.1-22.2,13.5-38.9,13.5H125.1c-16.7,0-29.4-4.4-38.9-13.5c-9.3-8.8-13.8-21-13.8-37.2
		c0-8.8,0.3-17.5,0.9-25.8c0.6-8.1,1.7-17.1,3.4-26.6c1.7-9.4,3.8-18.2,6.4-26.1c2.4-7.5,5.7-15,9.8-22.2
		c3.9-6.8,8.3-12.6,13.1-17.2c4.5-4.3,10.1-7.8,16.8-10.4c6-2.4,12.7-3.7,20-4c1,0.6,2.5,1.4,4.6,2.8c5.9,3.8,12.5,8.1,19.5,12.6
		c8.4,5.4,19.2,10.2,32,14.3c13.2,4.3,26.6,6.4,40,6.4c13.3,0,26.8-2.2,40-6.4c12.8-4.2,23.6-9,32-14.3c7.5-4.8,13.9-8.9,19.5-12.6
		c2.1-1.4,3.6-2.3,4.6-2.8c7.3,0.3,14,1.6,20,4c6.7,2.6,12.3,6.2,16.8,10.4c4.9,4.7,9.3,10.5,13.1,17.3c4.1,7.2,7.4,14.7,9.8,22.2
		c2.5,8,4.7,16.7,6.4,26.1c1.7,9.5,2.9,18.4,3.4,26.5l0,0.1C405.2,376.5,405.5,385.2,405.5,394z"/>
</g>
</svg>
